HIERARCHY
ROOT pelvis
{
  OFFSET 0 0 0
  CHANNELS 6 Xposition Yposition Zposition Zrotation Xrotation Yrotation
  JOINT pelvis_right_femur
  {
    OFFSET -11.43119 -3.542788 0.2090856
    CHANNELS 3 Zrotation Xrotation Yrotation
    JOINT right_femur_tibia
    {
      OFFSET -1.028693 -40.73281 5
      CHANNELS 3 Zrotation Xrotation Yrotation
      JOINT right_tibia_foot
      {
        OFFSET -0.5013517 -42.05707 -5
        CHANNELS 3 Zrotation Xrotation Yrotation
        End Site
        {
          OFFSET 0 -5 10
        }
      }
    }
  }
  JOINT pelvis_left_femur
  {
    OFFSET 11.43119 -3.542788 0.2090856
    CHANNELS 3 Zrotation Xrotation Yrotation
    JOINT left_femur_tibia
    {
      OFFSET 1.028693 -40.73281 5
      CHANNELS 3 Zrotation Xrotation Yrotation
      JOINT left_tibia_foot
      {
        OFFSET 0.3200228 -42.98253 -5
        CHANNELS 3 Zrotation Xrotation Yrotation
        End Site
        {
          OFFSET 0 -5 10
        }
      }
    }
  }
  JOINT pelvis_spine1
  {
    OFFSET 0 8.64413 -3.209807
    CHANNELS 3 Zrotation Xrotation Yrotation
    JOINT spine1
    {
      OFFSET 0 29.53957 -1.762685
      CHANNELS 3 Zrotation Xrotation Yrotation
      JOINT spine2
      {
        OFFSET 0 16.36153 -0.1422377
        CHANNELS 3 Zrotation Xrotation Yrotation
        JOINT neck
        {
          OFFSET 0 11.60093 5
          CHANNELS 3 Zrotation Xrotation Yrotation
          End Site
          {
            OFFSET 0 20 0
          }
        }
      }
      JOINT right_manubrium
      {
        OFFSET -4.671311 15.89868 4
        CHANNELS 3 Zrotation Xrotation Yrotation
        JOINT right_clavicle
        {
          OFFSET -13.601 1.573642 -2.74176
          CHANNELS 3 Zrotation Xrotation Yrotation
          JOINT right_humerus
          {
            OFFSET -0.06331682 -27.72702 2.252146
            CHANNELS 3 Zrotation Xrotation Yrotation
            JOINT right_radius
            {
              OFFSET -0.5696302 -23.92083 0.4042105
              CHANNELS 3 Zrotation Xrotation Yrotation
              End Site
              {
                OFFSET 0 -15 0
              }
            }
          }
        }
      }
      JOINT left_manubrium
      {
        OFFSET 4.671311 15.89868 4
        CHANNELS 3 Zrotation Xrotation Yrotation
        JOINT left_clavicle
        {
          OFFSET 13.601 1.573642 -2.74176
          CHANNELS 3 Zrotation Xrotation Yrotation
          JOINT left_humerus
          {
            OFFSET 0.000209614 -29.01858 1.101395
            CHANNELS 3 Zrotation Xrotation Yrotation
            JOINT left_radius
            {
              OFFSET -0.2288314 -24.59216 1.790347
              CHANNELS 3 Zrotation Xrotation Yrotation
              End Site
              {
                OFFSET 0 -15 0
              }
            }
          }
        }
      }
    }
  }
}
MOTION
Frames: 20
Frame Time: 0.0416666666667
-0.08113665 48.19685 0.01068257 -3.666509 -18.79563 -1.44564 -55.76286 -61.49401 -55.38405 -180 85.2774 -180 5.380801 5.789542 -0.6249186 70.37052 -51.7196 65.54762 -180 79.57842 -180 -4.913023 2.856876 -19.11028 -1.720309 19.92547 0.05904857 7.972386 14.74122 -10.86911 -9.074621 7.634681 6.991522 7.223292 -31.72327 7.81872 21.34895 -6.632747 21.16353 -59.79523 -35.80591 13.69275 0 -65.23218 0 8.716913 -6.182095 25.38369 -27.39174 -30.80602 -5.646796 59.20545 -20.51079 -22.47771 0 -73.82083 0 -16.74085 -4.529969 -6.056151
-0.1408916 48.14017 -0.02712395 -3.300808 -19.07069 -1.452536 -55.76245 -61.51729 -55.00378 -180 85.19962 -180 5.351234 5.775682 -0.618761 69.66269 -51.52385 65.06888 -180 79.64952 -180 -4.927028 2.804263 -19.08766 -2.375764 20.27584 0.5329322 7.901205 14.69593 -10.62638 -9.498044 7.413649 6.831908 7.064593 -32.25019 7.517021 21.28455 -6.760931 20.9442 -60.28468 -35.46066 13.2037 0 -65.14974 0 7.22926 -7.94645 23.27282 -27.30534 -30.79765 -4.990539 59.27758 -20.44299 -22.5598 0 -74.09294 0 -17.18777 -2.3558 -9.546425
-0.1436353 48.29708 -0.05952796 -2.810656 -19.38469 -1.381152 -55.61646 -61.37539 -54.36815 -180 85.23363 -180 5.30422 5.795818 -0.6335533 68.43517 -51.24831 64.29787 -180 79.87696 -180 -4.929591 2.785649 -19.04252 -3.102584 20.64657 0.9714803 7.893301 14.77212 -10.44048 -10.03356 7.313244 6.681431 6.862687 -32.8047 7.167224 21.24324 -6.640452 20.89484 -60.42633 -35.32156 13.14279 0 -65.41321 0 5.599615 -9.724839 21.14646 -27.25144 -30.63638 -4.535747 59.11949 -20.5963 -22.94765 0 -74.42815 0 -17.57479 0.002191096 -12.95999
-0.109099 48.3765 -0.07760799 -2.527896 -19.69398 -1.290646 -55.35136 -61.17921 -53.68026 -180 85.27514 -180 5.2601 5.775509 -0.6181275 67.5107 -51.01564 63.68107 -180 80.03905 -180 -4.917423 2.739544 -19.06603 -3.549383 20.95761 1.260377 7.928606 14.79912 -10.30442 -10.66288 7.436244 6.560207 6.612159 -33.24485 6.801722 21.14169 -6.329866 21.14345 -60.19925 -35.6013 13.61797 0 -66.19038 0 3.915534 -11.45774 19.13354 -27.25577 -30.42315 -4.396885 58.66745 -21.01078 -23.53591 0 -74.77525 0 -17.80404 2.269546 -16.16633
-0.08188623 48.42644 -0.1004286 -2.301477 -19.9446 -1.142478 -55.24025 -60.97889 -53.24419 -180 85.28525 -180 5.245275 5.752377 -0.6027897 66.78658 -50.89873 63.21745 -180 80.17144 -180 -4.90149 2.715246 -19.08313 -3.87088 21.24274 1.489056 7.959352 14.69842 -10.12375 -11.30814 7.702622 6.449051 6.347706 -33.52853 6.418825 21.07942 -5.850988 21.59677 -59.66641 -36.1121 14.47818 0 -67.02675 0 2.168233 -13.00434 17.21568 -27.36312 -30.24396 -4.476149 57.92479 -21.5569 -24.16787 0 -74.99745 0 -17.82666 4.271679 -19.02475
-0.0390899 48.49306 -0.04438663 -2.104587 -20.1547 -0.9287036 -55.20386 -60.66442 -52.90879 -180 85.24658 -180 5.233259 5.7106 -0.5785969 66.08773 -50.80012 62.74276 -180 80.26264 -180 -4.874365 2.684259 -19.12939 -4.108291 21.38339 1.807571 8.03433 14.68142 -9.991706 -11.90233 8.018937 6.318496 6.122096 -33.77907 6.013514 21.11227 -5.337637 22.14095 -59.01293 -36.66072 15.39817 0 -67.59706 0 0.3385472 -14.28438 15.37383 -27.62787 -30.13902 -4.658036 57.08594 -22.05346 -24.68498 0 -74.76814 0 -17.70441 6.082033 -21.50125
-0.008247879 48.5339 -0.02876197 -1.963253 -20.33561 -0.6955704 -55.1895 -60.38843 -52.68898 -180 85.21498 -180 5.247186 5.666028 -0.6087282 65.56021 -50.80227 62.37606 -180 80.34389 -180 -4.835264 2.688075 -19.19847 -4.221912 21.54375 2.169284 8.057896 14.5713 -9.768643 -12.42018 8.375179 6.199318 5.961799 -33.91522 5.626863 21.16023 -4.953869 22.75194 -58.40632 -37.17787 16.17945 0 -67.71181 0 -1.552895 -15.2443 13.62268 -27.88232 -30.08415 -4.824986 56.23158 -22.5425 -25.15771 0 -74.39856 0 -17.50662 7.609332 -23.65376
0.026158 48.56631 -0.03473218 -1.845151 -20.47346 -0.4181504 -55.21937 -60.12313 -52.51119 -180 85.212 -180 5.262677 5.622333 -0.6467101 65.12144 -50.87054 62.09784 -180 80.43724 -180 -4.791925 2.708729 -19.26146 -4.295485 21.70098 2.528994 8.073177 14.45113 -9.48807 -12.79861 8.686099 6.111156 5.93716 -34.01663 5.309493 21.16975 -4.733072 23.35464 -57.97466 -37.55037 16.69614 0 -67.34099 0 -3.459382 -15.9115 11.98905 -28.06797 -30.03268 -5.011906 55.43795 -23.02951 -25.64092 0 -73.95196 0 -17.28574 8.873096 -25.52109
0.04405555 48.59773 -0.03772627 -1.757875 -20.5637 -0.1056441 -55.26128 -59.88338 -52.37613 -180 85.19725 -180 5.284668 5.572956 -0.6950946 64.78366 -50.97564 61.91088 -180 80.53277 -180 -4.754261 2.740127 -19.33912 -4.37391 21.82034 2.855863 8.136974 14.32003 -9.21054 -13.07738 8.93098 6.072814 6.05055 -34.09159 5.05046 21.17215 -4.632335 23.88375 -57.70821 -37.70057 16.94383 0 -66.64192 0 -5.347749 -16.3939 10.46566 -28.17308 -29.96647 -5.214545 54.68167 -23.49502 -26.15003 0 -73.45815 0 -17.05903 9.937112 -27.12704
0.05776649 48.61911 -0.03774643 -1.714689 -20.62161 0.1954112 -55.28447 -59.68942 -52.24354 -180 85.15696 -180 5.320971 5.527893 -0.7728878 64.60042 -51.07687 61.84884 -180 80.58656 -180 -4.713956 2.778942 -19.44733 -4.424774 21.92348 3.105116 8.271677 14.18258 -9.020223 -13.36616 9.057279 6.100038 6.233597 -34.17122 4.826925 21.21231 -4.690343 24.22357 -57.70431 -37.61749 16.8289 0 -65.85826 0 -7.14655 -16.79019 9.068522 -28.21007 -29.87963 -5.382542 53.98561 -23.90212 -26.63526 0 -73.04802 0 -16.82773 10.82009 -28.51704
0.07924317 48.62529 -0.02168533 -1.683391 -20.65832 0.4310408 -55.26965 -59.56701 -52.11052 -180 85.1228 -180 5.362252 5.466517 -0.8993351 64.51334 -51.13348 61.86377 -180 80.6092 -180 -4.678157 2.818618 -19.56842 -4.458824 21.97903 3.268866 8.39904 14.07308 -8.889569 -13.65967 9.083332 6.180675 6.48567 -34.2493 4.618439 21.18279 -4.898486 24.46767 -57.9639 -37.41638 16.51591 0 -65.29004 0 -8.732529 -17.2289 7.853283 -28.1814 -29.79433 -5.510119 53.40227 -24.18405 -27.01067 0 -72.7123 0 -16.58366 11.55628 -29.71366
0.09820097 48.63173 -0.01945788 -1.690835 -20.65052 0.6172107 -55.23621 -59.50929 -51.98715 -180 85.11296 -180 5.408862 5.414832 -1.022741 64.51993 -51.18968 61.95636 -180 80.63771 -180 -4.645069 2.872289 -19.67487 -4.483444 21.96167 3.33784 8.48382 13.99739 -8.807233 -13.87474 9.051049 6.232407 6.83476 -34.27658 4.344859 20.97652 -5.123281 24.68998 -58.33697 -37.15785 16.29504 0 -65.12544 0 -10.06217 -17.77971 6.845531 -28.09953 -29.72765 -5.614928 52.97601 -24.3391 -27.24663 0 -72.43262 0 -16.33848 12.18197 -30.73553
0.1149045 48.63944 -0.00223369 -1.725856 -20.61469 0.74198 -55.17612 -59.49944 -51.89212 -180 85.09836 -180 5.450227 5.364159 -1.149512 64.62707 -51.21242 62.10258 -180 80.63945 -180 -4.623838 2.915552 -19.77644 -4.543333 21.95007 3.395179 8.591978 13.93426 -8.744324 -13.97888 8.912521 6.164637 7.271349 -34.29533 3.89732 20.72571 -5.372675 24.84757 -58.8428 -36.67538 15.9288 0 -65.08465 0 -11.19107 -18.37737 5.953858 -27.97984 -29.67642 -5.700548 52.64786 -24.41065 -27.39728 0 -72.30407 0 -16.10012 12.68927 -31.61759
0.1153122 48.65379 0.01696692 -1.829839 -20.55289 0.8056395 -55.02484 -59.53241 -51.77436 -180 85.09316 -180 5.489685 5.325268 -1.257892 64.86255 -51.21296 62.30123 -180 80.62732 -180 -4.60666 2.951442 -19.86579 -4.638848 21.91025 3.423839 8.781933 13.90283 -8.74952 -13.96054 8.742034 5.930431 7.793358 -34.2554 3.212512 20.4993 -5.618192 24.84444 -59.39391 -35.97399 15.4697 0 -65.34185 0 -12.16151 -19.08696 5.177392 -27.84096 -29.66264 -5.705317 52.42653 -24.41013 -27.47329 0 -72.30487 0 -15.88702 13.11447 -32.37578
0.1043094 48.65161 0.023671 -1.983501 -20.46077 0.7807979 -54.84023 -59.64373 -51.7118 -180 85.11101 -180 5.522013 5.306396 -1.350164 65.24433 -51.22404 62.56431 -180 80.58825 -180 -4.603968 2.981373 -19.92236 -4.784652 21.836 3.427366 9.032338 13.90032 -8.832819 -13.82485 8.666626 5.467681 8.377015 -34.04771 2.178693 20.34089 -5.918157 24.63342 -60.03864 -35.05053 14.81661 0 -65.91967 0 -12.99735 -19.91813 4.502609 -27.7156 -29.73998 -5.565668 52.27325 -24.35479 -27.45391 0 -72.42586 0 -15.68747 13.47152 -33.03169
0.1081709 48.63105 0.0324666 -2.179825 -20.37134 0.669923 -54.6597 -59.76439 -51.7018 -180 85.13732 -180 5.53735 5.312613 -1.385356 65.66291 -51.25738 62.77788 -180 80.5094 -180 -4.621306 2.981097 -19.91775 -4.971167 21.73699 3.381571 9.335153 13.95515 -9.013645 -13.5047 8.752047 4.705569 9.043416 -33.64306 0.7218303 20.17641 -6.329322 24.25264 -60.8426 -33.92092 13.94789 0 -66.71939 0 -13.69952 -20.8575 3.898137 -27.62231 -29.90052 -5.261246 52.16223 -24.25862 -27.35584 0 -72.66985 0 -15.49762 13.78504 -33.60095
0.1200521 48.61192 0.04938381 -2.427695 -20.26029 0.4783444 -54.4934 -59.87099 -51.83057 -180 85.19149 -180 5.549994 5.336207 -1.392137 66.13628 -51.31995 62.97153 -180 80.39546 -180 -4.652802 2.974711 -19.85999 -5.158382 21.58573 3.295123 9.635324 14.04747 -9.29454 -13.04295 9.01991 3.695221 9.76905 -33.01817 -1.097574 19.95006 -6.876827 23.70351 -61.793 -32.59921 12.91758 0 -67.58287 0 -14.27441 -21.86957 3.342395 -27.54669 -30.12623 -4.814826 52.06627 -24.11781 -27.21216 0 -73.0385 0 -15.32173 14.06217 -34.09834
0.1340774 48.59443 0.04473411 -2.729637 -20.10348 0.2510593 -54.36183 -59.97594 -52.0876 -180 85.28465 -180 5.558084 5.382306 -1.361346 66.69877 -51.44977 63.20404 -180 80.28193 -180 -4.691262 2.968705 -19.75679 -5.308261 21.41351 3.137889 9.91911 14.15287 -9.643762 -12.54281 9.445952 2.561513 10.51164 -32.21159 -3.125901 19.67951 -7.628339 23.01661 -62.88709 -31.11352 11.66673 0 -68.19335 0 -14.72401 -22.84861 2.768006 -27.42266 -30.40541 -4.261926 52.02099 -23.95928 -27.0356 0 -73.44349 0 -15.16381 14.30585 -34.52323
0.1458848 48.57835 0.01117116 -3.050592 -19.92253 0.02595446 -54.24425 -60.08674 -52.41227 -180 85.4201 -180 5.560789 5.438444 -1.314481 67.2984 -51.64452 63.43925 -180 80.18671 -180 -4.729463 2.970828 -19.61524 -5.401537 21.2626 2.904279 10.13672 14.24597 -9.982398 -12.1385 9.941611 1.444743 11.19277 -31.27707 -5.195674 19.39625 -8.646654 22.26621 -64.133 -29.50519 10.19777 0 -68.32451 0 -15.04923 -23.73472 2.147385 -27.20434 -30.70963 -3.6638 52.05647 -23.77527 -26.84963 0 -73.88818 0 -15.03308 14.5201 -34.88301
0.1261956 48.51745 -0.0519274 -3.439306 -19.69736 -0.1909089 -54.17604 -60.2641 -52.87983 -180 85.53656 -180 5.580354 5.531059 -1.286497 68.15475 -51.92451 63.84694 -180 80.06844 -180 -4.753786 3.002665 -19.46595 -5.327553 21.16446 2.581201 10.24971 14.20284 -10.24884 -11.93589 10.40922 0.4755784 11.74308 -30.26739 -7.138163 19.08233 -9.942743 21.47767 -65.47335 -27.81767 8.538881 0 -67.79553 0 -15.22544 -24.4537 1.470088 -26.87994 -30.98786 -3.065089 52.15426 -23.56546 -26.68906 0 -74.35206 0 -14.93857 14.68496 -35.18272
